%
M48
M72
T01C0.04331
%
T01
X15213Y20685
X15213Y30685
X15213Y40685
X15213Y50685
X15213Y60685
X15213Y70685
X15213Y80685
X15213Y90685
X15213Y100685
X15213Y110685
X15213Y120685
X15213Y130685
X15213Y140685
X18559Y166354
X28559Y166354
X56118Y166354
X66118Y166354
X76118Y166354
X86118Y166354
X85213Y140685
X85213Y130685
X85213Y120685
X85213Y110685
X85213Y100685
X85213Y90685
X85213Y80685
X85213Y70685
X85213Y60685
X85213Y50685
X85213Y40685
X85213Y30685
X85213Y20685
X65213Y48244
X55213Y48244
X45213Y48244
X35213Y48244
X35213Y87614
X45213Y87614
X55213Y87614
X65213Y87614
M30
